HIERARCHY
ROOT Hips
{
  OFFSET 54.7565 96.7482 58.5433
  CHANNELS 6 Xposition Yposition Zposition Zrotation Xrotation Yrotation
  JOINT spine
  {
    OFFSET 0 8.1325 0.467659
    CHANNELS 3 Zrotation Xrotation Yrotation
    JOINT spine1
    {
      OFFSET 0 10.3498 0
      CHANNELS 3 Zrotation Xrotation Yrotation
      JOINT spine2
      {
        OFFSET 0 9.91699 0
        CHANNELS 3 Zrotation Xrotation Yrotation
        JOINT Neck
        {
          OFFSET 0 25.461 1.2139
          CHANNELS 3 Zrotation Xrotation Yrotation
          JOINT Head
          {
            OFFSET 0 7.69245 0
            CHANNELS 3 Zrotation Xrotation Yrotation
            End Site
            {
              OFFSET 0 18.62 -6.14063
            }
          }
        }
        JOINT RightShoulder
        {
          OFFSET -4.17575 10.7096 -0.581445
          CHANNELS 3 Zrotation Xrotation Yrotation
          JOINT RightArm
          {
            OFFSET 0 14.0466 0
            CHANNELS 3 Zrotation Xrotation Yrotation
            JOINT RightArmRoll
            {
              OFFSET 0 7.09099 0
              CHANNELS 3 Zrotation Xrotation Yrotation
              JOINT RightForeArm
              {
                OFFSET 0 20.6535 0
                CHANNELS 3 Zrotation Xrotation Yrotation
                JOINT RightForeArmRoll
                {
                  OFFSET 0 7.95718 0
                  CHANNELS 3 Zrotation Xrotation Yrotation
                  JOINT RightHand
                  {
                    OFFSET 0 15.9683 0
                    CHANNELS 3 Zrotation Xrotation Yrotation
                    End Site
                    {
                      OFFSET 0 0 0
                    }
                  }
                }
              }
            }
          }
        }
        JOINT LeftShoulder
        {
          OFFSET 4.17575 10.7096 -0.581445
          CHANNELS 3 Zrotation Xrotation Yrotation
          JOINT LeftArm
          {
            OFFSET 0 14.0466 0
            CHANNELS 3 Zrotation Xrotation Yrotation
            JOINT LeftArmRoll
            {
              OFFSET 0 7.09098 0
              CHANNELS 3 Zrotation Xrotation Yrotation
              JOINT LeftForeArm
              {
                OFFSET 0 20.6535 0
                CHANNELS 3 Zrotation Xrotation Yrotation
                JOINT LeftForeArmRoll
                {
                  OFFSET 0 7.95718 0
                  CHANNELS 3 Zrotation Xrotation Yrotation
                  JOINT LeftHand
                  {
                    OFFSET 0 15.9683 0
                    CHANNELS 3 Zrotation Xrotation Yrotation
                    End Site
                    {
                      OFFSET 0 0 0
                    }
                  }
                }
              }
            }
          }
        }
      }
    }
  }
  JOINT RightUpLeg
  {
    OFFSET -7.20834 -1.32182 -1.10884
    CHANNELS 3 Zrotation Xrotation Yrotation
    JOINT RightUpLegRoll
    {
      OFFSET 0 18.7238 0
      CHANNELS 3 Zrotation Xrotation Yrotation
      JOINT RightLeg
      {
        OFFSET 0 -23.1866 0
        CHANNELS 3 Zrotation Xrotation Yrotation
        JOINT RightLegRoll
        {
          OFFSET 0 23.2624 0
          CHANNELS 3 Zrotation Xrotation Yrotation
          JOINT RightFoot
          {
            OFFSET 0 19.3621 0
            CHANNELS 3 Zrotation Xrotation Yrotation
            JOINT RightToeBase
            {
              OFFSET 0 16.1857 0
              CHANNELS 3 Zrotation Xrotation Yrotation
              End Site
              {
                OFFSET 0.00686052 7.83862 -0.903522
              }
            }
          }
        }
      }
    }
  }
  JOINT LeftUpLeg
  {
    OFFSET 7.20834 -1.32182 -1.10884
    CHANNELS 3 Zrotation Xrotation Yrotation
    JOINT LeftUpLegRoll
    {
      OFFSET 0 18.7239 0
      CHANNELS 3 Zrotation Xrotation Yrotation
      JOINT LeftLeg
      {
        OFFSET 0 23.1865 0
        CHANNELS 3 Zrotation Xrotation Yrotation
        JOINT LeftLegRoll
        {
          OFFSET 0 23.4775 0
          CHANNELS 3 Zrotation Xrotation Yrotation
          JOINT LeftFoot
          {
            OFFSET 0 19.147 0
            CHANNELS 3 Zrotation Xrotation Yrotation
            JOINT LeftToeBase
            {
              OFFSET 0 16.1857 0
              CHANNELS 3 Zrotation Xrotation Yrotation
              End Site
              {
                OFFSET -0.0307459 7.83862 -0.903522
              }
            }
          }
        }
      }
    }
  }
}
MOTION
Frames: 9
Frame Time: 0.00208333
55.4427 56.2405 14.8613 -1.63887 -4.97566 -1.42118 0.677154 1.18207 -0.101023 1.36947 6.34988 -0.303687 1.37617 7.99468 -0.327313 -3.27939 -9.7016 -4.81211 3.18731 5.50119 -4.97366 57.2383 -10.5364 -6.5636 127.589 39.6635 -21.8459 4.77019e-007 -4.31253e-006 -1.74317e-006 17.066 32.8139 -6.56452 -5.29864e-006 -4.04372e-006 -3.01221 8.02891 -4.9513 0.697627 -62.2157 -9.60687 6.0032 -121.831 40.6362 25.0103 7.37468e-006 -6.43428e-007 7.61291e-006 -11.7729 27.6869 3.23588 5.80077e-006 1.30372e-005 3.00732 -8.02893 -4.95159 -0.697758 117.157 74.6288 66.4965 180 1.52564e-005 178.995 166.207 84.5509 -170.577 5.64923e-006 1.254e-006 1.84122 -21.052 66.4476 18.2159 8.13649 25.2327 -3.48773 -119.19 75.9718 -63.2919 4.54188e-006 -4.6773e-006 -1.30455 11.5481 -84.2395 13.1326 -1.60676e-006 -2.56942e-006 -2.18635 17.4188 60.384 -14.3323 -8.13653 25.2333 3.48692 
55.4407 56.2402 14.8629 -1.63164 -4.97945 -1.42361 0.676075 1.18229 -0.101418 1.3669 6.3514 -0.302975 1.37359 7.9962 -0.326556 -3.28402 -9.69432 -4.8087 3.19044 5.49181 -4.97023 57.2332 -10.5334 -6.56164 127.595 39.6596 -21.8278 4.77019e-007 -4.31253e-006 -1.74317e-006 17.0581 32.8205 -6.56528 -5.29864e-006 -4.04372e-006 -3.01221 8.02891 -4.9513 0.697627 -62.2117 -9.60241 6.00055 -121.831 40.6328 25.0058 7.37468e-006 -6.43428e-007 7.61291e-006 -11.7727 27.6876 3.23558 5.80077e-006 1.30372e-005 3.00732 -8.02893 -4.95159 -0.697758 117.163 74.625 66.4878 180 1.52564e-005 178.995 166.216 84.5494 -170.585 5.64923e-006 1.254e-006 1.84125 -21.0566 66.4475 18.2157 8.13649 25.2327 -3.48773 -119.223 75.9694 -63.2619 4.54188e-006 -4.6773e-006 -1.30455 11.5426 -84.2394 13.1281 -1.60676e-006 -2.56942e-006 -2.18578 17.4173 60.3862 -14.3339 -8.13653 25.2333 3.48692 
55.4396 56.2502 14.8663 -1.62399 -4.9836 -1.4262 0.674928 1.18254 -0.101822 1.36418 6.35303 -0.302182 1.37085 7.99783 -0.325717 -3.28885 -9.68695 -4.80511 3.19366 5.48246 -4.96661 57.2278 -10.5301 -6.55955 127.601 39.6555 -21.8089 4.77019e-007 -4.31253e-006 -1.74317e-006 17.05 32.8274 -6.56605 -5.29864e-006 -4.04372e-006 -3.01221 8.02891 -4.9513 0.697627 -62.2074 -9.59773 5.99776 -121.831 40.6292 25.0012 7.37468e-006 -6.43428e-007 7.61291e-006 -11.7726 27.6881 3.23527 5.80077e-006 1.30372e-005 3.00732 -8.02893 -4.95159 -0.697758 117.171 74.6209 66.478 180 1.52564e-005 178.995 166.227 84.5478 -170.595 5.64923e-006 1.254e-006 1.84129 -21.0612 66.4474 18.2155 8.13649 25.2327 -3.48773 -119.259 75.9667 -63.23 4.54188e-006 -4.6773e-006 -1.30455 11.5367 -84.2392 13.1232 -1.60676e-006 -2.56942e-006 -2.1852 17.4157 60.3885 -14.3355 -8.13653 25.2333 3.48692 
55.4376 56.2476 14.8637 -1.61606 -4.98799 -1.42889 0.673735 1.18282 -0.102233 1.36135 6.35474 -0.301333 1.368 7.99954 -0.324819 -3.29382 -9.6795 -4.80137 3.19695 5.47314 -4.96287 57.2223 -10.5268 -6.55737 127.608 39.6512 -21.7895 4.77019e-007 -4.31253e-006 -1.74317e-006 17.0417 32.8343 -6.56683 -5.29864e-006 -4.04372e-006 -3.01221 8.02891 -4.9513 0.697627 -62.2029 -9.5929 5.99489 -121.83 40.6256 24.9964 7.37468e-006 -6.43428e-007 7.61291e-006 -11.7725 27.6885 3.23495 5.80077e-006 1.30372e-005 3.00732 -8.02893 -4.95159 -0.697758 117.179 74.6168 66.4674 180 1.52564e-005 178.995 166.239 84.5461 -170.606 5.64923e-006 1.254e-006 1.84133 -21.0659 66.4472 18.2152 8.13649 25.2327 -3.48773 -119.296 75.9638 -63.1966 4.54188e-006 -4.6773e-006 -1.30455 11.5304 -84.2389 13.1179 -1.60676e-006 -2.56942e-006 -2.1846 17.414 60.3908 -14.3372 -8.13653 25.2333 3.48692 
55.4452 56.2455 14.8724 -1.60797 -4.99252 -1.43165 0.672514 1.18311 -0.102648 1.35845 6.35649 -0.300452 1.36509 8.0013 -0.323887 -3.29888 -9.67202 -4.79757 3.20028 5.46383 -4.95906 57.2167 -10.5233 -6.55513 127.614 39.6467 -21.7697 4.77019e-007 -4.31253e-006 -1.74317e-006 17.0332 32.8413 -6.56762 -5.29864e-006 -4.04372e-006 -3.01221 8.02891 -4.9513 0.697627 -62.1983 -9.58797 5.99196 -121.83 40.6218 24.9916 7.37468e-006 -6.43428e-007 7.61291e-006 -11.7724 27.6888 3.23462 5.80077e-006 1.30372e-005 3.00732 -8.02893 -4.95159 -0.697758 117.187 74.6125 66.4562 180 1.52564e-005 178.995 166.252 84.5443 -170.618 5.64923e-006 1.254e-006 1.84139 -21.0706 66.447 18.2149 8.13649 25.2327 -3.48773 -119.335 75.9607 -63.1625 4.54188e-006 -4.6773e-006 -1.30455 11.5239 -84.2386 13.1125 -1.60676e-006 -2.56942e-006 -2.184 17.4122 60.393 -14.3389 -8.13653 25.2333 3.48692 
55.4401 56.2426 14.8694 -1.59983 -4.99708 -1.43443 0.671287 1.18341 -0.103064 1.35554 6.35826 -0.299562 1.36217 8.00307 -0.322947 -3.30395 -9.66454 -4.79374 3.20362 5.45452 -4.95522 57.211 -10.5198 -6.55289 127.621 39.6423 -21.7499 4.77019e-007 -4.31253e-006 -1.74317e-006 17.0247 32.8484 -6.5684 -5.29864e-006 -4.04372e-006 -3.01221 8.02891 -4.9513 0.697627 -62.1936 -9.58303 5.98901 -121.83 40.6181 24.9868 7.37468e-006 -6.43428e-007 7.61291e-006 -11.7723 27.6892 3.23429 5.80077e-006 1.30372e-005 3.00732 -8.02893 -4.95159 -0.697758 117.196 74.6083 66.445 180 1.52564e-005 178.995 166.265 84.5425 -170.63 5.64923e-006 1.254e-006 1.84144 -21.0753 66.4467 18.2146 8.13649 25.2327 -3.48773 -119.373 75.9577 -63.1281 4.54188e-006 -4.6773e-006 -1.30455 11.5173 -84.2382 13.1071 -1.60676e-006 -2.56942e-006 -2.18339 17.4105 60.3953 -14.3406 -8.13653 25.2333 3.48692 
55.4391 56.2406 14.8686 -1.59178 -5.00158 -1.43718 0.670073 1.1837 -0.103478 1.35266 6.36001 -0.298689 1.35927 8.00481 -0.322024 -3.30899 -9.65707 -4.78995 3.20694 5.44521 -4.95143 57.2054 -10.5164 -6.55067 127.627 39.6379 -21.7303 4.77019e-007 -4.31253e-006 -1.74317e-006 17.0163 32.8554 -6.56919 -5.29864e-006 -4.04372e-006 -3.01221 8.02891 -4.9513 0.697627 -62.1891 -9.57813 5.9861 -121.83 40.6143 24.982 7.37468e-006 -6.43428e-007 7.61291e-006 -11.7722 27.6896 3.23396 5.80077e-006 1.30372e-005 3.00732 -8.02893 -4.95159 -0.697758 117.204 74.604 66.434 180 1.52564e-005 178.995 166.278 84.5407 -170.642 5.64923e-006 1.254e-006 1.84149 -21.08 66.4465 18.2143 8.13649 25.2327 -3.48773 -119.411 75.9546 -63.0941 4.54188e-006 -4.6773e-006 -1.30455 11.5109 -84.2379 13.1018 -1.60676e-006 -2.56942e-006 -2.18279 17.4088 60.3976 -14.3423 -8.13653 25.2333 3.48692 
55.4429 56.2455 14.87 -1.58394 -5.0059 -1.43984 0.668893 1.18397 -0.103887 1.34986 6.36169 -0.297856 1.35646 8.0065 -0.321143 -3.31393 -9.64964 -4.78626 3.21021 5.43588 -4.94772 57.1999 -10.513 -6.54851 127.634 39.6336 -21.711 4.77019e-007 -4.31253e-006 -1.74317e-006 17.0081 32.8623 -6.56997 -5.29864e-006 -4.04372e-006 -3.01221 8.02891 -4.9513 0.697627 -62.1846 -9.57334 5.98325 -121.829 40.6107 24.9773 7.37468e-006 -6.43428e-007 7.61291e-006 -11.7721 27.69 3.23365 5.80077e-006 1.30372e-005 3.00732 -8.02893 -4.95159 -0.697758 117.212 74.5999 66.4236 180 1.52564e-005 178.994 166.29 84.539 -170.652 5.64923e-006 1.254e-006 1.84153 -21.0846 66.4463 18.214 8.13649 25.2327 -3.48773 -119.448 75.9517 -63.0612 4.54188e-006 -4.6773e-006 -1.30455 11.5047 -84.2376 13.0966 -1.60676e-006 -2.56942e-006 -2.1822 17.4071 60.3999 -14.3439 -8.13653 25.2333 3.48692 
55.4369 56.2506 14.8711 -1.57642 -5.00994 -1.44238 0.667766 1.18421 -0.104288 1.34719 6.36329 -0.297087 1.35377 8.0081 -0.320328 -3.3187 -9.6423 -4.78272 3.21342 5.42652 -4.94416 57.1947 -10.5098 -6.54646 127.64 39.6295 -21.6924 4.77019e-007 -4.31253e-006 -1.74317e-006 17 32.8691 -6.57073 -5.29864e-006 -4.04372e-006 -3.01221 8.02891 -4.9513 0.697627 -62.1804 -9.56873 5.98051 -121.829 40.6072 24.9727 7.37468e-006 -6.43428e-007 7.61291e-006 -11.7719 27.6906 3.23334 5.80077e-006 1.30372e-005 3.00732 -8.02893 -4.95159 -0.697758 117.22 74.5959 66.4141 180 1.52564e-005 178.994 166.3 84.5374 -170.662 5.64923e-006 1.254e-006 1.84157 -21.0892 66.4462 18.2138 8.13649 25.2327 -3.48773 -119.483 75.9491 -63.03 4.54188e-006 -4.6773e-006 -1.30455 11.4989 -84.2374 13.0918 -1.60676e-006 -2.56942e-006 -2.18162 17.4055 60.4021 -14.3456 -8.13653 25.2333 3.48692 
